<svg width="800" height="600" viewBox="0 0 800 600" fill="none" xmlns="http://www.w3.org/2000/svg">
  <!-- Background -->
  <rect width="800" height="600" rx="20" fill="#F9FAFC"/>
  
  <!-- Header -->
  <rect width="800" height="60" rx="10" fill="#FFFFFF"/>
  <rect x="30" y="20" width="120" height="20" rx="4" fill="#3F51B5"/>
  <circle cx="740" cy="30" r="15" fill="#F0F0F0"/>
  <circle cx="700" cy="30" r="15" fill="#F0F0F0"/>
  
  <!-- Sidebar -->
  <rect width="200" height="540" y="60" rx="0" fill="#FFFFFF"/>
  <rect x="30" y="100" width="140" height="12" rx="6" fill="#E9EAEE"/>
  <rect x="30" y="140" width="140" height="12" rx="6" fill="#E9EAEE"/>
  <rect x="30" y="180" width="140" height="12" rx="6" fill="#E9EAEE"/>
  <rect x="30" y="220" width="140" height="12" rx="6" fill="#E9EAEE"/>
  <rect x="30" y="260" width="140" height="12" rx="6" fill="#E9EAEE"/>
  <rect x="30" y="300" width="140" height="12" rx="6" fill="#E9EAEE"/>
  <rect x="30" y="500" width="140" height="40" rx="6" fill="#3F51B5"/>
  
  <!-- Main Content Area -->
  <rect x="220" y="80" width="560" height="60" rx="10" fill="#FFFFFF"/>
  <rect x="240" y="100" width="150" height="20" rx="4" fill="#E9EAEE"/>
  <rect x="600" y="100" width="100" height="30" rx="15" fill="#3F51B5"/>
  
  <!-- Task Cards -->
  <rect x="220" y="160" width="270" height="440" rx="10" fill="#FFFFFF"/>
  <rect x="240" y="180" width="100" height="20" rx="4" fill="#E9EAEE"/>
  <rect x="400" y="180" width="60" height="20" rx="10" fill="#E6F7FF"/>
  <rect x="240" y="220" width="230" height="90" rx="8" fill="#F5F6FA"/>
  <rect x="260" y="240" width="150" height="12" rx="6" fill="#333333"/>
  <rect x="260" y="270" width="190" height="8" rx="4" fill="#CCCCCC"/>
  <rect x="260" y="285" width="120" height="8" rx="4" fill="#CCCCCC"/>
  <rect x="240" y="330" width="230" height="90" rx="8" fill="#F5F6FA"/>
  <rect x="260" y="350" width="150" height="12" rx="6" fill="#333333"/>
  <rect x="260" y="380" width="190" height="8" rx="4" fill="#CCCCCC"/>
  <rect x="260" y="395" width="120" height="8" rx="4" fill="#CCCCCC"/>
  <rect x="240" y="440" width="230" height="90" rx="8" fill="#F5F6FA"/>
  <rect x="260" y="460" width="150" height="12" rx="6" fill="#333333"/>
  <rect x="260" y="490" width="190" height="8" rx="4" fill="#CCCCCC"/>
  <rect x="260" y="505" width="120" height="8" rx="4" fill="#CCCCCC"/>
  
  <!-- Analytics Section -->
  <rect x="510" y="160" width="270" height="210" rx="10" fill="#FFFFFF"/>
  <rect x="530" y="180" width="120" height="20" rx="4" fill="#E9EAEE"/>
  
  <!-- Chart -->
  <rect x="530" y="220" width="230" height="120" rx="8" fill="#F5F6FA"/>
  <path d="M530 300 Q558 260, 586 290 Q614 320, 642 260 Q670 200, 698 230 Q726 260, 760 230" stroke="#3F51B5" stroke-width="3" fill="none"/>
  <path d="M530 300 L530 300 L586 290 L642 260 L698 230 L760 230 L760 300 L530 300 Z" fill="url(#paint0_linear)" fill-opacity="0.2"/>
  
  <!-- Calendar Section -->
  <rect x="510" y="390" width="270" height="210" rx="10" fill="#FFFFFF"/>
  <rect x="530" y="410" width="120" height="20" rx="4" fill="#E9EAEE"/>
  
  <!-- Calendar Grid -->
  <rect x="530" y="450" width="230" height="120" rx="8" fill="#F5F6FA"/>
  <rect x="545" y="465" width="25" height="25" rx="4" fill="#FFFFFF"/>
  <rect x="580" y="465" width="25" height="25" rx="4" fill="#FFFFFF"/>
  <rect x="615" y="465" width="25" height="25" rx="4" fill="#FFFFFF"/>
  <rect x="650" y="465" width="25" height="25" rx="4" fill="#FFFFFF"/>
  <rect x="685" y="465" width="25" height="25" rx="4" fill="#FFFFFF"/>
  <rect x="720" y="465" width="25" height="25" rx="4" fill="#FFFFFF"/>
  
  <rect x="545" y="500" width="25" height="25" rx="4" fill="#FFFFFF"/>
  <rect x="580" y="500" width="25" height="25" rx="4" fill="#FFFFFF"/>
  <rect x="615" y="500" width="25" height="25" rx="4" fill="#3F51B5"/>
  <rect x="650" y="500" width="25" height="25" rx="4" fill="#FFFFFF"/>
  <rect x="685" y="500" width="25" height="25" rx="4" fill="#FFFFFF"/>
  <rect x="720" y="500" width="25" height="25" rx="4" fill="#FFFFFF"/>
  
  <rect x="545" y="535" width="25" height="25" rx="4" fill="#FFFFFF"/>
  <rect x="580" y="535" width="25" height="25" rx="4" fill="#FFFFFF"/>
  <rect x="615" y="535" width="25" height="25" rx="4" fill="#FFFFFF"/>
  <rect x="650" y="535" width="25" height="25" rx="4" fill="#FF4081" fill-opacity="0.7"/>
  <rect x="685" y="535" width="25" height="25" rx="4" fill="#FFFFFF"/>
  <rect x="720" y="535" width="25" height="25" rx="4" fill="#FFFFFF"/>
  
  <!-- Gradient for chart -->
  <defs>
    <linearGradient id="paint0_linear" x1="645" y1="230" x2="645" y2="300" gradientUnits="userSpaceOnUse">
      <stop stop-color="#3F51B5"/>
      <stop offset="1" stop-color="#3F51B5" stop-opacity="0"/>
    </linearGradient>
  </defs>
</svg> 